<svg fill="white" xmlns="http://www.w3.org/2000/svg" viewBox="0 0 1024 1024"><path d="M512 35q-99 0-186.5 37.5t-152.5 102.5-102.5 152.5-37.5 186.5 37.5 186.5 102.5 152.5 152.5 102.5 186.5 37.5 186.5-37.5 152.5-102.5 102.5-152.5 37.5-186.5-37.5-186-102.5-152-152.5-103-186.5-38zm0 908q-89 0-167-33.5t-136-92-91.5-136.5-33.5-166q0-89 33.5-167t91.5-136 136-92 167-34 167 34 136 92 91.5 136 33.5 166q0 89-33.5 167t-91.5 136.5-136 92-167 33.5zm-72-508q0 30-21 51t-50 21q-30 0-51-21t-21-51q0-29 21-50t51-21q29 0 50 21t21 50zm217 181q-8-2-15.5 2t-9.5 12q0 1-22.5 34.5t-89.5 33.5q-66 0-88.5-33.5t-22.5-34.5q-3-9-10.5-12.5t-15.5-1.5q-8 3-12 10.5t-1 15.5q7 25 43 61t107 36q72 0 107.5-36t43.5-61q2-8-1.5-15.5t-12.5-10.5zm94-181q0 30-21 51t-51 21-51-21-21-51q0-29 21-50t51-21 51 21 21 50zm-308-162q9 3 16-1.5t9-12.5-2.5-15.5-11.5-9.5q-3 0-66.5-6t-122.5 39q-39 31-59 82t-20 122q0 8 6 14.5t15 6.5q8 0 14-6.5t6-14.5q0-61 16-104t47-67q47-37 100-32l53 5zm340-7q-59-45-122-39t-66 6q-9 3-13 10t-1 15q2 8 9.5 12.5t14.5 1.5q1 0 54-5t100 31q31 25 47 67.5t16 103.5q0 8 6 14t15 6q8 0 14-6t6-14q-1-70-20.5-121t-59.5-82z"/></svg>
